<?xml version="1.0" encoding="UTF-8" standalone="no"?>
<!DOCTYPE svg PUBLIC "-//W3C//DTD SVG 1.1//EN" "http://www.w3.org/Graphics/SVG/1.1/DTD/svg11.dtd">
<svg width="100%" height="100%" viewBox="0 0 41 41" version="1.1" xmlns="http://www.w3.org/2000/svg" xmlns:xlink="http://www.w3.org/1999/xlink" xml:space="preserve" xmlns:serif="http://www.serif.com/" style="fill-rule:evenodd;clip-rule:evenodd;stroke-linejoin:round;stroke-miterlimit:2;">
    <g transform="matrix(1,0,0,1,-1564.81,-75.5299)">
        <g transform="matrix(1.04044,0,0,1.04044,213.408,53.6178)">
            <circle cx="1318.19" cy="40.376" r="19.315" style="fill:rgb(11,120,183);"/>
        </g>
        <g transform="matrix(0.041991,0,0,0.041991,1575.7,86.4188)">
            <rect x="5.424" y="145.895" width="94.216" height="282.932" style="fill:white;"/>
        </g>
        <g transform="matrix(0.041991,0,0,0.041991,1575.7,86.4188)">
            <path d="M408.842,171.739C389.051,150.135 362.875,139.331 330.33,139.331C318.339,139.331 307.439,140.806 297.635,143.758C287.834,146.708 279.556,150.847 272.797,156.177C266.042,161.507 260.662,166.455 256.668,171.021C252.87,175.358 249.156,180.41 245.532,186.125L245.532,145.893L151.597,145.893L151.885,159.599C152.078,168.738 152.173,196.906 152.173,244.107C152.173,291.312 151.983,352.884 151.601,428.829L245.532,428.829L245.532,270.942C245.532,261.237 246.573,253.53 248.671,247.815C252.671,238.103 258.708,229.972 266.802,223.408C274.895,216.836 284.932,213.553 296.927,213.553C313.291,213.553 325.334,219.215 333.044,230.54C340.751,241.864 344.605,257.52 344.605,277.506L344.605,428.82L438.536,428.82L438.536,266.664C438.529,224.976 428.639,193.336 408.842,171.739Z" style="fill:white;fill-rule:nonzero;"/>
        </g>
        <g transform="matrix(0.041991,0,0,0.041991,1575.7,86.4188)">
            <path d="M53.103,9.708C37.307,9.708 24.508,14.327 14.703,23.556C4.899,32.787 0,44.441 0,58.529C0,72.42 4.758,84.034 14.275,93.358C23.789,102.683 36.353,107.348 51.96,107.348L52.531,107.348C68.521,107.348 81.418,102.687 91.219,93.358C101.02,84.034 105.825,72.424 105.636,58.529C105.446,44.442 100.589,32.787 91.075,23.556C81.562,14.323 68.9,9.708 53.103,9.708Z" style="fill:white;fill-rule:nonzero;"/>
        </g>
    </g>
</svg>
