<?xml version="1.0" encoding="UTF-8" standalone="no"?>
<!DOCTYPE svg PUBLIC "-//W3C//DTD SVG 1.1//EN" "http://www.w3.org/Graphics/SVG/1.1/DTD/svg11.dtd">
<svg width="100%" height="100%" viewBox="0 0 50 50" version="1.1" xmlns="http://www.w3.org/2000/svg" xmlns:xlink="http://www.w3.org/1999/xlink" xml:space="preserve" xmlns:serif="http://www.serif.com/" style="fill-rule:evenodd;clip-rule:evenodd;stroke-linejoin:round;stroke-miterlimit:2;">
    <g transform="matrix(0.104167,0,0,0.104167,-1.66667,-1.66667)">
        <path d="M176,96L176,24C176,19.611 179.611,16 184,16L216,16L216,32L192,32L192,88L320,88L320,32L232,32L232,16L328,16C332.389,16 336,19.611 336,24L336,96C336,100.389 332.389,104 328,104L184,104C179.611,104 176,100.389 176,96ZM96,168L248,168L248,200L264,200L264,168L416,168L416,200L432,200L432,160C432,155.611 428.389,152 424,152L264,152L264,120L248,120L248,152L88,152C83.611,152 80,155.611 80,160L80,200L96,200L96,168ZM432,392L432,320L416,320L416,344L88,344C83.611,344 80,347.611 80,352L80,392L96,392L96,360L248,360L248,392L264,392L264,360L416,360L416,392L432,392ZM24,304L152,304C156.389,304 160,300.389 160,296L160,224C160,219.611 156.389,216 152,216L24,216C19.611,216 16,219.611 16,224L16,243L32,243L32,232L144,232L144,288L32,288L32,256L16,256L16,296C16,300.389 19.611,304 24,304ZM328,224L328,296C328,300.389 324.389,304 320,304L192,304C187.611,304 184,300.389 184,296L184,224C184,219.611 187.611,216 192,216L320,216C324.389,216 328,219.611 328,224ZM312,232L200,232L200,288L312,288L312,232ZM496,224L496,296C496,300.389 492.389,304 488,304L360,304C355.611,304 352,300.389 352,296L352,224C352,219.611 355.611,216 360,216L488,216C492.389,216 496,219.611 496,224ZM480,232L368,232L368,288L480,288L480,232ZM160,416L160,488C160,492.389 156.389,496 152,496L24,496C19.611,496 16,492.389 16,488L16,416C16,411.611 19.611,408 24,408L152,408C156.389,408 160,411.611 160,416ZM144,424L32,424L32,480L144,480L144,424ZM328,416L328,488C328,492.389 324.389,496 320,496L192,496C187.611,496 184,492.389 184,488L184,416C184,411.611 187.611,408 192,408L320,408C324.389,408 328,411.611 328,416ZM312,424L200,424L200,480L312,480L312,424ZM488,408L360,408C355.611,408 352,411.611 352,416L352,488C352,492.389 355.611,496 360,496L488,496C492.389,496 496,492.389 496,488L496,462L480,462L480,480L368,480L368,424L480,424L480,444L496,444L496,416C496,411.611 492.389,408 488,408Z" style="fill:rgb(244,151,108);fill-rule:nonzero;"/>
    </g>
</svg>
