<?xml version="1.0" encoding="UTF-8" standalone="no"?>
<!DOCTYPE svg PUBLIC "-//W3C//DTD SVG 1.1//EN" "http://www.w3.org/Graphics/SVG/1.1/DTD/svg11.dtd">
<svg width="100%" height="100%" viewBox="0 0 56 68" version="1.1" xmlns="http://www.w3.org/2000/svg" xmlns:xlink="http://www.w3.org/1999/xlink" xml:space="preserve" xmlns:serif="http://www.serif.com/" style="fill-rule:evenodd;clip-rule:evenodd;stroke-linejoin:round;stroke-miterlimit:2;">
    <g transform="matrix(0.131674,0,0,0.131674,-5.70856,0)">
        <path d="M272.458,415.594C272.458,427.261 281.95,436.753 293.618,436.753C305.286,436.753 314.777,427.261 314.777,415.594C314.777,403.927 305.286,394.434 293.618,394.434C281.95,394.434 272.458,403.927 272.458,415.594ZM299.746,415.594C299.746,418.975 296.997,421.724 293.617,421.724C290.236,421.724 287.487,418.975 287.487,415.594C287.487,412.213 290.237,409.464 293.617,409.464C296.997,409.464 299.746,412.213 299.746,415.594Z" style="fill:rgb(244,151,108);fill-rule:nonzero;"/>
        <path d="M322.424,38.87C326.575,38.87 329.939,35.506 329.939,31.355C329.939,27.204 326.575,23.84 322.424,23.84L292.035,23.84C287.884,23.84 284.52,27.204 284.52,31.355C284.52,35.506 287.884,38.87 292.035,38.87L322.424,38.87Z" style="fill:rgb(244,151,108);fill-rule:nonzero;"/>
        <path d="M274.085,31.411C274.085,27.23 270.695,23.84 266.514,23.84C262.333,23.84 258.943,27.23 258.943,31.411C258.943,35.593 262.333,38.982 266.514,38.982C270.695,38.983 274.085,35.593 274.085,31.411Z" style="fill:rgb(244,151,108);fill-rule:nonzero;"/>
        <path d="M428.773,0L158.462,0C136.476,0 118.588,17.888 118.588,39.874L118.588,125.245C118.588,129.396 121.952,132.76 126.103,132.76C130.254,132.76 133.618,129.396 133.618,125.245L133.618,39.874C133.618,26.174 144.763,15.03 158.462,15.03L428.773,15.03C442.472,15.03 453.616,26.175 453.616,39.874L453.616,417.07C453.616,430.77 442.471,441.914 428.773,441.914L178.875,441.914C186.376,426.495 189.794,409.866 189.025,392.43L434.583,392.43C438.734,392.43 442.098,389.066 442.098,384.915L442.098,303.788C442.098,299.637 438.734,296.273 434.583,296.273C430.432,296.273 427.068,299.637 427.068,303.788L427.068,377.4L187.363,377.4C186.748,373.917 185.976,370.409 185.04,366.877C179.097,344.446 168.358,327.411 163.73,320.758C166.153,310.686 173.403,280.018 178.52,252.919C181.952,234.742 175.784,222.82 170.006,216.02C167.357,212.902 163.937,210.646 160.167,209.41L160.167,62.981L427.068,62.981L427.068,273.729C427.068,277.88 430.432,281.244 434.583,281.244C438.734,281.244 442.098,277.88 442.098,273.729L442.098,55.467C442.098,51.316 438.734,47.952 434.583,47.952L152.651,47.952C148.5,47.952 145.136,51.316 145.136,55.467L145.136,209.934C140.398,211.853 136.42,215.388 133.98,220.032L133.616,220.725L133.616,155.304C133.616,151.153 130.252,147.789 126.101,147.789C121.95,147.789 118.586,151.153 118.586,155.304L118.586,249.333L80.313,322.19C73.099,335.922 70.566,351.905 73.182,367.195L77.747,393.882C81.244,414.319 77.929,435.721 68.414,454.143L44.192,501.036C42.989,503.366 43.086,506.154 44.45,508.394C45.813,510.633 48.246,512 50.868,512L226.33,512C228.81,512 231.132,510.776 232.533,508.728L246.278,488.633C256.435,486.162 289.276,476.928 308.863,456.943L428.774,456.943C450.76,456.943 468.647,439.056 468.647,417.069L468.647,39.874C468.646,17.888 450.759,0 428.773,0ZM240.216,474.605C238.309,474.998 236.63,476.116 235.531,477.722L222.365,496.971L63.208,496.971L81.768,461.04C92.772,439.734 96.606,414.983 92.562,391.347L87.997,364.66C85.935,352.606 87.931,340.005 93.619,329.18L147.287,227.02C149.333,222.796 155.631,222.067 158.553,225.75C163.874,232.012 165.624,240.215 163.751,250.129C157.633,282.535 148.405,320.193 148.313,320.569C147.765,322.8 148.274,325.168 149.684,326.982C149.826,327.164 163.948,345.532 170.636,371.193C179.356,404.657 171.881,434.458 148.417,459.769C145.595,462.812 145.775,467.567 148.819,470.388C151.862,473.209 156.617,473.031 159.438,469.986C163.342,465.774 166.854,461.42 169.996,456.942L284.787,456.942C265.004,469.333 240.528,474.54 240.216,474.605Z" style="fill:rgb(244,151,108);fill-rule:nonzero;"/>
        <path d="M399.1,235.704L399.1,121.172C399.1,111.509 391.239,103.647 381.575,103.647L365.104,103.647C351.092,95.19 330.63,87.095 309.439,93.418C302.491,95.493 297.217,98.595 293.622,101.235C290.027,98.595 284.753,95.493 277.805,93.418C256.611,87.09 236.153,95.189 222.14,103.647L205.668,103.647C196.005,103.647 188.143,111.508 188.143,121.172L188.143,235.703C188.143,245.366 196.004,253.227 205.668,253.227L381.575,253.227C391.239,253.228 399.1,245.367 399.1,235.704ZM231.781,115.405C261.845,98.135 280.342,109.618 286.107,114.402L286.107,207.609C283.668,206.403 280.91,205.267 277.806,204.339C261.071,199.342 244.791,203.342 231.782,209.41L231.782,115.405L231.781,115.405ZM203.173,235.704L203.173,121.172C203.173,119.796 204.292,118.677 205.668,118.677L216.751,118.677L216.751,222.083C216.57,227.818 223.522,231.65 228.275,228.438C260.456,208.137 280.176,220.388 286.106,225.314L286.106,238.198L205.668,238.198C204.292,238.199 203.173,237.079 203.173,235.704ZM301.136,225.323C307.121,220.355 326.831,208.164 358.969,228.439C363.72,231.654 370.675,227.817 370.493,222.084L370.493,181.742C370.493,177.591 367.129,174.227 362.978,174.227C358.827,174.227 355.463,177.591 355.463,181.742L355.463,209.41C342.453,203.342 326.171,199.344 309.438,204.339C306.333,205.267 303.574,206.404 301.135,207.609L301.135,114.402C306.898,109.618 325.394,98.132 355.463,115.405L355.463,151.683C355.463,155.834 358.827,159.198 362.978,159.198C367.129,159.198 370.493,155.834 370.493,151.683L370.493,118.677L381.575,118.677C382.951,118.677 384.07,119.796 384.07,121.172L384.07,235.703C384.07,237.079 382.951,238.198 381.575,238.198L301.136,238.198L301.136,225.323Z" style="fill:rgb(244,151,108);fill-rule:nonzero;"/>
        <path d="M371.177,282.116L216.066,282.116C211.915,282.116 208.551,285.48 208.551,289.631C208.551,293.782 211.915,297.146 216.066,297.146L371.177,297.146C375.328,297.146 378.692,293.782 378.692,289.631C378.692,285.479 375.328,282.116 371.177,282.116Z" style="fill:rgb(244,151,108);fill-rule:nonzero;"/>
        <path d="M371.177,320.67L216.066,320.67C211.915,320.67 208.551,324.034 208.551,328.185C208.551,332.336 211.915,335.7 216.066,335.7L371.177,335.7C375.328,335.7 378.692,332.336 378.692,328.185C378.692,324.034 375.328,320.67 371.177,320.67Z" style="fill:rgb(244,151,108);fill-rule:nonzero;"/>
    </g>
</svg>
