<?xml version="1.0" encoding="UTF-8" standalone="no"?>
<!DOCTYPE svg PUBLIC "-//W3C//DTD SVG 1.1//EN" "http://www.w3.org/Graphics/SVG/1.1/DTD/svg11.dtd">
<svg width="100%" height="100%" viewBox="0 0 78 64" version="1.1" xmlns="http://www.w3.org/2000/svg" xmlns:xlink="http://www.w3.org/1999/xlink" xml:space="preserve" xmlns:serif="http://www.serif.com/" style="fill-rule:evenodd;clip-rule:evenodd;stroke-linejoin:round;stroke-miterlimit:2;">
    <g transform="matrix(0.150472,0,0,0.150472,0,-7.07227)">
        <path d="M507.105,142.203L345.199,80.477C341.273,78.98 336.879,80.949 335.383,84.871C333.887,88.797 335.855,93.191 339.781,94.688L483.051,149.309L383.871,187.125L259.137,130.648C255.309,128.914 250.805,130.613 249.074,134.438C247.34,138.266 249.039,142.77 252.863,144.504L363.852,194.758L256,235.875L28.949,149.309L256,62.742L311.953,84.078C315.871,85.57 320.27,83.605 321.77,79.68C323.266,75.758 321.297,71.363 317.371,69.867L258.711,47.5C256.965,46.836 255.035,46.832 253.289,47.5L4.895,142.203C1.949,143.328 0,146.156 0,149.309L0,184.035C0,187.188 1.949,190.016 4.895,191.141L82.461,220.711L82.461,247.063C82.461,251.262 85.863,254.668 90.062,254.668C94.266,254.668 97.668,251.262 97.668,247.063L97.668,226.512L253.289,285.844C254.164,286.176 255.082,286.344 256,286.344C256.918,286.344 257.836,286.176 258.711,285.844L376.016,241.121L376.016,361.465C339.187,380.797 297.891,391.156 256,391.156C198.828,391.156 142.75,371.883 97.668,336.809L97.668,277.48C97.668,273.281 94.266,269.875 90.062,269.875C85.863,269.875 82.461,273.281 82.461,277.48L82.461,340.492C82.461,342.801 83.508,344.984 85.309,346.426C133.555,385.078 194.176,406.363 256,406.363C297.695,406.363 338.836,396.668 376.016,378.508L376.016,409.285C363.762,412.633 354.727,423.855 354.727,437.156C354.727,453.086 367.687,466.051 383.617,466.051C399.551,466.051 412.512,453.086 412.512,437.156C412.512,423.855 403.477,412.633 391.223,409.285L391.223,370.477C403.617,363.426 415.492,355.402 426.695,346.426C428.496,344.984 429.547,342.801 429.547,340.492L429.547,220.707L507.105,191.137C510.051,190.016 512,187.188 512,184.031L512,149.309C512,146.156 510.051,143.328 507.105,142.203ZM397.305,437.156C397.305,444.699 391.164,450.84 383.617,450.84C376.074,450.84 369.934,444.699 369.934,437.156C369.934,429.609 376.074,423.469 383.617,423.469C391.164,423.469 397.305,429.609 397.305,437.156ZM15.207,160.348L248.395,249.254L248.395,267.699L15.207,178.793L15.207,160.348ZM263.605,267.699L263.605,249.254L376.016,206.395L376.016,224.844L263.605,267.699ZM414.336,336.805C406.918,342.578 399.195,347.914 391.223,352.812L391.223,235.32L414.336,226.508L414.336,336.805ZM391.223,219.043L391.223,200.598L496.793,160.348L496.793,178.793L391.223,219.043Z" style="fill:rgb(244,151,108);fill-rule:nonzero;"/>
    </g>
</svg>
