<?xml version="1.0" encoding="UTF-8" standalone="no"?>
<!DOCTYPE svg PUBLIC "-//W3C//DTD SVG 1.1//EN" "http://www.w3.org/Graphics/SVG/1.1/DTD/svg11.dtd">
<svg width="100%" height="100%" viewBox="0 0 25 15" version="1.1" xmlns="http://www.w3.org/2000/svg" xmlns:xlink="http://www.w3.org/1999/xlink" xml:space="preserve" xmlns:serif="http://www.serif.com/" style="fill-rule:evenodd;clip-rule:evenodd;stroke-linejoin:round;stroke-miterlimit:2;">
    <g transform="matrix(1,0,0,1,-323.218,-2054.9)">
        <g transform="matrix(0.0334831,0,0,0.0334831,336.245,2054.9)">
            <g>
                <g>
                    <path d="M336.226,209.591L131.426,4.791C124.646,-1.757 113.842,-1.569 107.294,5.211C100.906,11.825 100.906,22.31 107.294,28.923L300.028,221.657L107.294,414.391C100.631,421.055 100.631,431.859 107.294,438.523C113.959,445.186 124.762,445.186 131.426,438.523L336.226,233.723C342.889,227.058 342.889,216.255 336.226,209.591Z" style="fill:white;fill-rule:nonzero;"/>
                </g>
            </g>
        </g>
        <g transform="matrix(0.584469,0,0,1,-563.433,179.251)">
            <path d="M1556.74,1882.57C1557.01,1882.57 1557.24,1882.79 1557.24,1883.07C1557.24,1883.35 1557.01,1883.57 1556.74,1883.57L1517.52,1883.57C1517.24,1883.57 1517.02,1883.35 1517.02,1883.07C1517.02,1882.79 1517.24,1882.57 1517.52,1882.57L1556.74,1882.57Z" style="fill:white;"/>
        </g>
    </g>
</svg>
